<svg id="line" height="512" viewBox="0 0 64 64" width="512" xmlns="http://www.w3.org/2000/svg"><path d="m31 43a1 1 0 0 1 .97.758l.811 3.242h12.438l.811-3.242a1 1 0 0 1 .97-.758h14.65l-7.209-16.219a3 3 0 0 0 -2.741-1.781h-25.4a3 3 0 0 0 -2.741 1.781l-7.209 16.219z" fill="#c4a2fc"/><path d="m47.781 45-.811 3.242a1 1 0 0 1 -.97.758h-14a1 1 0 0 1 -.97-.758l-.811-3.242h-14.219v15a3 3 0 0 0 3 3h40a3 3 0 0 0 3-3v-15zm-4.781 12h-8a1 1 0 0 1 0-2h8a1 1 0 0 1 0 2z" fill="#c4a2fc"/><g fill="#151a6a"><path d="m39 1h-28a3 3 0 0 0 -3 3v3h-3a3 3 0 0 0 -3 3v36a3 3 0 0 0 3 3h28a3 3 0 0 0 3-3v-3h3a3 3 0 0 0 3-3v-36a3 3 0 0 0 -3-3zm-5 45a1 1 0 0 1 -1 1h-28a1 1 0 0 1 -1-1v-36a1 1 0 0 1 1-1h20v6a3 3 0 0 0 3 3h6zm-7-36.586 6.586 6.586h-5.586a1 1 0 0 1 -1-1zm13 30.586a1 1 0 0 1 -1 1h-3v-24.172a2.978 2.978 0 0 0 -.879-2.121l-6.828-6.828a2.983 2.983 0 0 0 -2.122-.879h-16.171v-3a1 1 0 0 1 1-1h28a1 1 0 0 1 1 1z"/><path d="m8 21h6a1 1 0 0 0 1-1v-6a1 1 0 0 0 -1-1h-6a1 1 0 0 0 -1 1v6a1 1 0 0 0 1 1zm1-6h4v4h-4z"/><path d="m30 25h-22a1 1 0 0 0 0 2h22a1 1 0 0 0 0-2z"/><path d="m30 31h-22a1 1 0 0 0 0 2h22a1 1 0 0 0 0-2z"/><path d="m30 37h-22a1 1 0 0 0 0 2h22a1 1 0 0 0 0-2z"/></g></svg>