<svg id="line" height="512" viewBox="0 0 64 64" width="512" xmlns="http://www.w3.org/2000/svg"><g fill="#c4a2fc"><path d="m43 36a7.5 7.5 0 1 0 -7.5-7.5 7.508 7.508 0 0 0 7.5 7.5zm0-10a2.5 2.5 0 1 1 -2.5 2.5 2.5 2.5 0 0 1 2.5-2.5z"/><path d="m35.3 34.047-8.229 20.582a1 1 0 0 0 .1.926l1.829 2.745v3.7a1 1 0 0 0 2 0v-3.738l11.468-20.289a9.481 9.481 0 0 1 -7.168-3.926z"/><path d="m50.7 34.047a9.481 9.481 0 0 1 -7.164 3.926l11.464 20.289v3.738a1 1 0 0 0 2 0v-3.7l1.832-2.748a1 1 0 0 0 .1-.926z"/><path d="m46 19.493v-3.493a3 3 0 0 0 -6 0v3.493a9.374 9.374 0 0 1 6 0z"/><path d="m40.793 45-2.26 4h8.935l-2.261-4z"/><path d="m28.768 45h-4.768a1 1 0 0 0 -1 1v2a1 1 0 0 0 1 1h3.168z"/><path d="m62 45h-4.768l1.6 4h3.168a1 1 0 0 0 1-1v-2a1 1 0 0 0 -1-1z"/></g><path d="m48 9h-37v-3a5 5 0 0 0 -10 0v32a5.006 5.006 0 0 0 5 5h42a3 3 0 0 0 3-3v-28a3 3 0 0 0 -3-3zm-45-3a3 3 0 0 1 6 0v28a4.992 4.992 0 0 0 -6 0zm46 34a1 1 0 0 1 -1 1h-42a3 3 0 1 1 3-3 1 1 0 0 0 2 0v-27h37a1 1 0 0 1 1 1z" fill="#151a6a"/><path d="m36 23h-5v-5a1 1 0 0 0 -1-1h-10a1 1 0 0 0 -1 1v16a1 1 0 0 0 1 1h16a1 1 0 0 0 1-1v-10a1 1 0 0 0 -1-1zm-15-4h8v4h-3a1 1 0 0 0 -1 1v3h-4zm8 6v2h-2v-2zm-8 4h4v4h-4zm14 4h-8v-4h3a1 1 0 0 0 1-1v-3h4z" fill="#151a6a"/><path d="m40 17h-6a1 1 0 0 0 -1 1v2a1 1 0 0 0 2 0v-1h4v13a1 1 0 0 0 2 0v-14a1 1 0 0 0 -1-1z" fill="#151a6a"/></svg>