<svg id="line" height="512" viewBox="0 0 64 64" width="512" xmlns="http://www.w3.org/2000/svg"><g fill="#c4a2fc"><path d="m21 33h20v6h-20z"/><path d="m50 16a8.008 8.008 0 0 1 -7 7.931v7.069h20v-5a1 1 0 0 0 -1-1 5.006 5.006 0 0 1 -5-5v-7a3 3 0 0 0 -3-3h-4z"/><path d="m43 33h20v6h-20z"/><path d="m36 16a6 6 0 0 0 12 0v-5.486a9.684 9.684 0 0 1 -12 0z"/><path d="m43 41v20h17a3 3 0 0 0 3-3v-17z"/><path d="m41 41h-20v17a3 3 0 0 0 3 3h17z"/><path d="m41 31v-7.069a8.008 8.008 0 0 1 -7-7.931v-6h-4a3 3 0 0 0 -3 3v7a5.006 5.006 0 0 1 -5 5 1 1 0 0 0 -1 1v5z"/></g><path d="m40.974 23.176a19.018 19.018 0 0 0 -1.921-7.544 3.672 3.672 0 0 0 -4.335-5.739 19.108 19.108 0 0 0 -5.943-3.642 3 3 0 0 0 -2.985-3.251h-7.58a3 3 0 0 0 -2.985 3.251 19.124 19.124 0 0 0 -5.944 3.642 3.671 3.671 0 0 0 -4.334 5.738 19.044 19.044 0 0 0 -1.921 7.545 3 3 0 0 0 -2.026 2.824v2a3 3 0 0 0 3 3h36a3 3 0 0 0 3-3v-2a3 3 0 0 0 -2.026-2.824zm-12.403-14.833a17.087 17.087 0 0 1 4.593 2.873l-2.291 2.866a3.234 3.234 0 0 0 4.546 4.545l2.062-1.649a17.023 17.023 0 0 1 1.488 6.022h-11.864zm8.9 3.682a1.685 1.685 0 0 1 -.139 2.508l-3.167 2.533a1.234 1.234 0 0 1 -1.735-1.735l2.533-3.167a1.684 1.684 0 0 1 2.512-.139zm-19.261-7.025h7.58a1 1 0 0 1 1 1.1l-1.69 16.9h-6.19l-1.695-16.9a1 1 0 0 1 .995-1.1zm-9.628 13.627a3.233 3.233 0 0 0 4.545-4.545l-2.291-2.866a17.1 17.1 0 0 1 4.593-2.873l1.471 14.657h-11.869a17.055 17.055 0 0 1 1.488-6.023zm-2.057-6.6a1.684 1.684 0 0 1 2.508.139l2.533 3.167a1.234 1.234 0 0 1 -1.735 1.735l-3.167-2.535a1.684 1.684 0 0 1 -.139-2.508zm34.475 15.973a1 1 0 0 1 -1 1h-36a1 1 0 0 1 -1-1v-2a1 1 0 0 1 1-1h36a1 1 0 0 1 1 1z" fill="#151a6a"/><path d="m22 13a3.5 3.5 0 1 0 -3.5-3.5 3.5 3.5 0 0 0 3.5 3.5zm0-5a1.5 1.5 0 1 1 -1.5 1.5 1.5 1.5 0 0 1 1.5-1.5z" fill="#151a6a"/></svg>