<svg id="line" height="512" viewBox="0 0 64 64" width="512" xmlns="http://www.w3.org/2000/svg"><rect fill="#c4a2fc" height="22" rx="1" width="34" x="25" y="21.5"/><path d="m60 17.5h-36a3 3 0 0 0 -3 3v24a3 3 0 0 0 3 3h6v2h-4a1 1 0 0 0 0 2h12v4h-8a1 1 0 0 0 0 2h24a1 1 0 0 0 0-2h-8v-4h12a1 1 0 0 0 0-2h-4v-2h6a3 3 0 0 0 3-3v-24a3 3 0 0 0 -3-3zm-22 32h-6v-2h6zm14 0h-6v-2h6zm9-5a1 1 0 0 1 -1 1h-36a1 1 0 0 1 -1-1v-24a1 1 0 0 1 1-1h36a1 1 0 0 1 1 1z" fill="#c4a2fc"/><g fill="#151a6a"><path d="m51 23.5a6.006 6.006 0 0 0 -5-5.91v-8.09a3 3 0 0 0 -3-3h-4.229a5 5 0 0 0 -1.857.357c-11.614 4.215-16.051 7.643-24.914 7.643h-6a5.006 5.006 0 0 0 -5 5v8a5.006 5.006 0 0 0 5 5h.025a27.68 27.68 0 0 0 2.8 10.787 2 2 0 0 0 1.834 1.213h5.531a1.848 1.848 0 0 0 1.419-3.031 15.6 15.6 0 0 1 -3.562-8.892c7.44.5 11.026 3.151 22.865 7.565a4.959 4.959 0 0 0 1.859.358h4.229a3 3 0 0 0 3-3v-8.09a6.006 6.006 0 0 0 5-5.91zm-38 7v-6h4v6.392c-1.287-.202-3.964-.392-4-.392zm4-8h-4v-6.015a32.307 32.307 0 0 0 4-.377zm-14 5v-8a3 3 0 0 1 3-3h5v14h-5a3 3 0 0 1 -3-3zm12.869 15h-5.21a26 26 0 0 1 -2.638-10h4.008a17.608 17.608 0 0 0 3.84 10zm3.131-11.224v-15.552c5.331-1.19 16.381-6.41 19-7.11v29.772c-2.695-.721-13.619-5.908-19-7.11zm25 6.224a1 1 0 0 1 -1 1h-3v-30h3a1 1 0 0 1 1 1zm2-10.126v-7.748a4 4 0 0 1 0 7.748z"/><path d="m6 21.5h2a1 1 0 0 0 0-2h-2a1 1 0 0 0 0 2z"/><path d="m8 27.5a1 1 0 0 0 0-2h-2a1 1 0 0 0 0 2z"/></g></svg>