<svg id="line" height="512" viewBox="0 0 64 64" width="512" xmlns="http://www.w3.org/2000/svg"><g fill="#c4a2fc"><path d="m45 34h2v15h-2z"/><path d="m41 28a2 2 0 0 0 0 4h2v-2a2 2 0 0 0 -2-2z"/><path d="m45.187 13.019a17.132 17.132 0 0 0 -16.162 16.056 16.94 16.94 0 0 0 5.553 13.5 7.348 7.348 0 0 1 2.422 5.425 1 1 0 0 0 1 1h5v-15h-2a4 4 0 1 1 4-4v2h2v-2a4 4 0 1 1 4 4h-2v15h5a1 1 0 0 0 1-1 7.127 7.127 0 0 1 2.321-5.335 16.989 16.989 0 0 0 -12.134-29.646z"/><path d="m53 30a2 2 0 0 0 -4 0v2h2a2 2 0 0 0 2-2z"/><path d="m46 63a6.992 6.992 0 0 0 6.309-4h-12.618a6.992 6.992 0 0 0 6.309 4z"/><path d="m54 51h-16a3 3 0 0 0 0 6h16a3 3 0 0 0 0-6z"/></g><path d="m41.876 13.768-6.432-11.256a3.006 3.006 0 0 0 -2.605-1.512h-21.678a3.006 3.006 0 0 0 -2.605 1.512l-6.432 11.256a8.542 8.542 0 0 0 -1.124 4.232v30a3 3 0 0 0 3 3h36a3 3 0 0 0 3-3v-30a8.542 8.542 0 0 0 -1.124-4.232zm-8.168-10.268 6.432 11.26a6.548 6.548 0 0 1 .783 2.24h-12.093l-2.625-14h6.634a1 1 0 0 1 .869.5zm-16.708 15.5h10v9.131l-4.445-2.963a1 1 0 0 0 -1.11 0l-4.445 2.963zm7.17-16 2.63 14h-9.6l2.63-14zm-20.31 11.76 6.432-11.26a1 1 0 0 1 .869-.5h6.639l-2.63 14h-12.093a6.541 6.541 0 0 1 .783-2.24zm37.14 33.24a1 1 0 0 1 -1 1h-36a1 1 0 0 1 -1-1v-29h12v11a1 1 0 0 0 1.555.832l5.445-3.632 5.445 3.63a1 1 0 0 0 1.555-.83v-11h12z" fill="#151a6a"/><path d="m14 41h-8a1 1 0 0 0 0 2h8a1 1 0 0 0 0-2z" fill="#151a6a"/><path d="m10 45h-4a1 1 0 0 0 0 2h4a1 1 0 0 0 0-2z" fill="#151a6a"/></svg>